<?xml version="1.0" encoding="utf-8"?>
<!-- Generator: Adobe Illustrator 16.0.0, SVG Export Plug-In . SVG Version: 6.00 Build 0)  -->
<!DOCTYPE svg PUBLIC "-//W3C//DTD SVG 1.1//EN" "http://www.w3.org/Graphics/SVG/1.1/DTD/svg11.dtd">
<svg version="1.1" id="Layer_1" xmlns="http://www.w3.org/2000/svg" xmlns:xlink="http://www.w3.org/1999/xlink" x="0px" y="0px"
	 width="308.463px" height="118.811px" viewBox="0 0 308.463 118.811" enable-background="new 0 0 308.463 118.811"
	 xml:space="preserve">
<path fill="#333333" d="M43.161,6.683c8.909-8.91,23.362-8.91,32.271,0L68.8,13.316c-5.247-5.247-13.76-5.247-19.007,0
	s-5.049,13.562,0,19.007c12.671,13.859,13.958,35.737-0.1,49.794C35.935,95.877,13.958,95.877,0,81.918l6.73-6.534
	c10.099,10.099,26.433,9.999,36.431,0c10.097-10.097,9.503-25.737,0-36.43C34.747,29.55,34.252,15.592,43.161,6.683z"/>
<path fill="#333333" d="M134.864,0h9.381v22.553h25.479v9.381h-25.479v25.619c0,14,11.34,25.48,25.619,25.48v9.38
	c-19.6,0-35-15.54-35-34.86V0z"/>
<path fill="#333333" d="M225.388,39.09l-0.14-0.14c-10.08-10.08-26.32-10.08-36.4,0c-10.08,9.94-10.08,26.32,0,36.4
	c9.94,10.08,26.46,10.08,36.4,0l6.58,6.58v0.14c-13.86,13.721-35.7,13.859-49.561,0c-13.859-14-13.859-35.84-0.14-49.7
	c14-14,36.54-13.3,49.84,0L225.388,39.09z"/>
<path fill="#333333" d="M238.183,0h9.38v32.913c6.3-6.72,15.259-10.92,25.621-10.92c18.898,0,35.279,15.4,35.279,35.28v35.14h-9.382
	v-35.14c0-14.28-11.618-25.9-25.76-25.9c-14,0-25.198,11.061-25.759,24.92v36.12h-9.38V0L238.183,0z"/>
<g>
	<path fill="#333333" d="M100.905,82.813c-5.46,0-10.5-1.681-14.56-4.48l42.42-42.56c-6.58-8.4-16.8-13.86-28-13.86
		c-19.88,0-35,15.54-35,35.28c0,19.46,15.4,35,35,35c9.836,0,18.628-3.86,24.977-10.139l-6.616-6.615
		C114.441,80.01,108.002,82.813,100.905,82.813z M75.145,57.052c0-14.279,11.479-25.76,25.76-25.76c5.461,0,10.5,1.681,14.561,4.48
		l-35.84,35.84C76.825,67.552,75.145,62.513,75.145,57.052z"/>
</g>
<g>
	<path fill="#333333" d="M1.875,115.362c0.263,0.542,0.626,0.975,1.087,1.296c0.46,0.322,1.006,0.553,1.636,0.691
		c0.629,0.14,1.303,0.209,2.021,0.209c0.41,0,0.856-0.059,1.339-0.176s0.933-0.304,1.351-0.561c0.417-0.256,0.764-0.585,1.043-0.987
		c0.278-0.403,0.417-0.89,0.417-1.461c0-0.439-0.099-0.819-0.297-1.142c-0.197-0.322-0.454-0.594-0.768-0.813
		c-0.315-0.219-0.663-0.397-1.043-0.538c-0.381-0.138-0.754-0.252-1.12-0.34l-3.492-0.856c-0.454-0.117-0.897-0.263-1.328-0.439
		c-0.432-0.176-0.809-0.409-1.131-0.703c-0.322-0.292-0.582-0.65-0.78-1.075c-0.197-0.424-0.296-0.944-0.296-1.56
		c0-0.38,0.073-0.827,0.22-1.34c0.146-0.512,0.42-0.995,0.823-1.448c0.402-0.454,0.955-0.839,1.658-1.153
		c0.703-0.314,1.603-0.473,2.701-0.473c0.776,0,1.516,0.104,2.218,0.309c0.703,0.204,1.318,0.512,1.845,0.922
		c0.527,0.41,0.948,0.919,1.263,1.526s0.472,1.313,0.472,2.119H10.22c-0.03-0.601-0.165-1.124-0.407-1.57
		c-0.241-0.447-0.556-0.82-0.944-1.12c-0.388-0.3-0.834-0.527-1.339-0.681c-0.505-0.153-1.036-0.231-1.592-0.231
		c-0.513,0-1.007,0.055-1.483,0.165c-0.476,0.109-0.893,0.286-1.251,0.527c-0.359,0.242-0.647,0.56-0.867,0.956
		c-0.22,0.395-0.33,0.885-0.33,1.471c0,0.366,0.062,0.685,0.187,0.955c0.125,0.271,0.296,0.502,0.516,0.692
		c0.22,0.189,0.472,0.344,0.758,0.46c0.286,0.118,0.589,0.213,0.912,0.286l3.821,0.944c0.556,0.146,1.079,0.326,1.57,0.538
		c0.49,0.213,0.922,0.476,1.295,0.79c0.374,0.315,0.666,0.7,0.878,1.154c0.212,0.453,0.318,1.002,0.318,1.646
		c0,0.176-0.019,0.409-0.055,0.703c-0.037,0.293-0.125,0.604-0.264,0.933s-0.337,0.663-0.593,0.999
		c-0.256,0.337-0.607,0.641-1.054,0.912c-0.447,0.271-1,0.489-1.658,0.658s-1.449,0.253-2.372,0.253s-1.779-0.106-2.569-0.318
		c-0.791-0.213-1.464-0.538-2.021-0.978s-0.985-1.003-1.285-1.69c-0.3-0.688-0.428-1.516-0.384-2.482h1.494
		C1.487,114.147,1.612,114.821,1.875,115.362z"/>
	<path fill="#333333" d="M16.017,107.566c0.308-0.98,0.769-1.848,1.384-2.603c0.615-0.754,1.387-1.354,2.316-1.801
		c0.93-0.446,2.01-0.67,3.239-0.67c1.23,0,2.306,0.224,3.229,0.67c0.922,0.447,1.691,1.047,2.306,1.801
		c0.615,0.755,1.076,1.622,1.384,2.603c0.308,0.981,0.461,2.014,0.461,3.097s-0.153,2.115-0.461,3.097
		c-0.308,0.98-0.769,1.845-1.384,2.591c-0.615,0.746-1.383,1.344-2.306,1.789c-0.922,0.447-1.999,0.671-3.229,0.671
		c-1.229,0-2.309-0.224-3.239-0.671c-0.93-0.445-1.702-1.043-2.316-1.789s-1.076-1.61-1.384-2.591
		c-0.307-0.981-0.461-2.014-0.461-3.097S15.71,108.548,16.017,107.566z M17.39,113.177c0.227,0.828,0.578,1.567,1.054,2.219
		c0.476,0.651,1.087,1.175,1.834,1.57c0.747,0.395,1.639,0.593,2.679,0.593s1.929-0.198,2.668-0.593
		c0.739-0.396,1.347-0.919,1.823-1.57s0.827-1.391,1.054-2.219c0.227-0.826,0.34-1.665,0.34-2.514c0-0.864-0.113-1.706-0.34-2.525
		c-0.228-0.82-0.578-1.556-1.054-2.207s-1.083-1.175-1.823-1.57s-1.629-0.594-2.668-0.594s-1.932,0.198-2.679,0.594
		c-0.747,0.396-1.358,0.919-1.834,1.57c-0.476,0.651-0.827,1.387-1.054,2.207c-0.228,0.819-0.341,1.661-0.341,2.525
		C17.05,111.511,17.163,112.35,17.39,113.177z"/>
	<path fill="#333333" d="M44.368,102.823v1.272h-8.455v5.666h7.511v1.274h-7.511v7.467H34.42v-15.68H44.368z"/>
	<path fill="#333333" d="M58.708,102.823v1.272H53.24v14.407h-1.493v-14.407h-5.446v-1.272H58.708z"/>
	<path fill="#333333" d="M61.959,102.823l3.558,13.725h0.044l3.821-13.725h1.867l3.843,13.725h0.044l3.58-13.725h1.493l-4.326,15.68
		h-1.581l-3.975-14.033h-0.043l-3.953,14.033h-1.625l-4.348-15.68H61.959z"/>
	<path fill="#333333" d="M89.475,102.823l6.149,15.68h-1.604l-1.91-4.876h-7.137l-1.889,4.876h-1.581l6.303-15.68H89.475z
		 M91.606,112.353l-3.03-8.038l-3.141,8.038H91.606z"/>
	<path fill="#333333" d="M105.99,102.823c0.644,0,1.255,0.08,1.833,0.241c0.579,0.161,1.083,0.406,1.516,0.735
		c0.432,0.33,0.776,0.754,1.032,1.273c0.256,0.521,0.384,1.132,0.384,1.834c0,0.996-0.256,1.859-0.769,2.592
		c-0.513,0.732-1.274,1.2-2.284,1.405v0.044c0.512,0.073,0.937,0.209,1.274,0.406c0.336,0.197,0.611,0.45,0.824,0.758
		c0.211,0.307,0.365,0.663,0.461,1.064c0.095,0.403,0.157,0.839,0.187,1.307c0.014,0.264,0.029,0.587,0.043,0.967
		c0.015,0.382,0.044,0.766,0.088,1.153s0.113,0.754,0.208,1.098c0.095,0.344,0.223,0.611,0.384,0.802h-1.647
		c-0.088-0.146-0.158-0.325-0.208-0.538c-0.052-0.212-0.088-0.432-0.11-0.659c-0.022-0.227-0.041-0.449-0.055-0.669
		c-0.015-0.22-0.03-0.41-0.044-0.572c-0.029-0.556-0.076-1.108-0.143-1.657c-0.065-0.549-0.205-1.04-0.417-1.472
		c-0.213-0.432-0.52-0.78-0.922-1.043c-0.403-0.264-0.955-0.381-1.658-0.352h-5.666v6.962h-1.494v-15.68H105.99z M105.88,110.267
		c0.454,0,0.886-0.069,1.295-0.209c0.41-0.139,0.769-0.34,1.077-0.604c0.307-0.264,0.552-0.582,0.735-0.956
		c0.183-0.373,0.274-0.801,0.274-1.284c0-0.966-0.278-1.727-0.834-2.283s-1.405-0.836-2.547-0.836h-5.578v6.172H105.88z"/>
	<path fill="#333333" d="M126.039,102.823v1.272h-9.333v5.666h8.74v1.274h-8.74v6.193h9.443v1.273h-10.937v-15.68H126.039z"/>
	<path fill="#333333" d="M144.442,118.174c-0.791,0.424-1.647,0.637-2.569,0.637c-0.674,0-1.3-0.096-1.877-0.286
		c-0.579-0.19-1.081-0.468-1.505-0.834s-0.757-0.819-0.999-1.362c-0.242-0.541-0.362-1.171-0.362-1.889
		c0-0.556,0.117-1.068,0.351-1.537c0.234-0.468,0.538-0.893,0.912-1.273c0.374-0.38,0.787-0.725,1.241-1.032
		c0.454-0.308,0.9-0.578,1.34-0.812c-0.22-0.278-0.443-0.56-0.67-0.846c-0.227-0.285-0.432-0.581-0.615-0.889
		c-0.183-0.309-0.336-0.63-0.461-0.967c-0.125-0.336-0.187-0.695-0.187-1.075c0-0.483,0.091-0.92,0.274-1.307
		c0.183-0.389,0.432-0.722,0.747-1c0.314-0.277,0.681-0.494,1.098-0.648c0.418-0.153,0.868-0.229,1.351-0.229
		s0.933,0.076,1.351,0.229c0.417,0.154,0.783,0.371,1.098,0.648c0.314,0.278,0.563,0.611,0.746,1
		c0.184,0.387,0.275,0.823,0.275,1.307c0,0.482-0.088,0.921-0.263,1.317c-0.176,0.395-0.407,0.754-0.692,1.075
		c-0.285,0.322-0.611,0.619-0.977,0.89c-0.366,0.271-0.747,0.53-1.142,0.779l3.425,4.129c0.19-0.38,0.315-0.765,0.374-1.152
		c0.059-0.389,0.088-0.883,0.088-1.482h1.383c0,0.439-0.062,1.007-0.187,1.702c-0.125,0.694-0.37,1.38-0.736,2.054l2.636,3.184
		h-1.735l-1.669-2.043C145.913,117.177,145.233,117.749,144.442,118.174z M140.577,111.365c-0.381,0.249-0.725,0.534-1.032,0.857
		c-0.307,0.321-0.556,0.677-0.747,1.064s-0.286,0.816-0.286,1.285c0,0.453,0.095,0.871,0.286,1.252
		c0.19,0.38,0.443,0.709,0.758,0.987s0.677,0.491,1.087,0.638c0.409,0.146,0.834,0.22,1.273,0.22c0.791,0,1.497-0.217,2.12-0.648
		c0.622-0.433,1.152-0.963,1.592-1.592l-3.909-4.744C141.338,110.89,140.957,111.116,140.577,111.365z M141.038,104.503
		c-0.411,0.344-0.615,0.845-0.615,1.505c0,0.277,0.058,0.56,0.176,0.845c0.117,0.285,0.264,0.563,0.439,0.834
		c0.175,0.271,0.365,0.535,0.571,0.791c0.205,0.256,0.396,0.487,0.571,0.692c0.278-0.177,0.561-0.366,0.846-0.571
		s0.545-0.436,0.78-0.692c0.234-0.256,0.424-0.541,0.571-0.855c0.146-0.314,0.22-0.663,0.22-1.043c0-0.66-0.206-1.161-0.615-1.505
		c-0.41-0.344-0.9-0.517-1.471-0.517C141.938,103.986,141.448,104.159,141.038,104.503z"/>
	<path fill="#333333" d="M171.706,105.953c-0.302-0.477-0.667-0.876-1.1-1.197c-0.431-0.322-0.907-0.567-1.427-0.736
		c-0.52-0.167-1.064-0.253-1.636-0.253c-1.039,0-1.933,0.198-2.68,0.594s-1.357,0.919-1.834,1.57
		c-0.476,0.651-0.827,1.387-1.054,2.207c-0.228,0.819-0.34,1.661-0.34,2.525c0,0.849,0.112,1.688,0.34,2.514
		c0.227,0.828,0.578,1.567,1.054,2.219c0.477,0.651,1.087,1.175,1.834,1.57c0.747,0.395,1.641,0.593,2.68,0.593
		c0.731,0,1.391-0.132,1.977-0.396c0.585-0.263,1.09-0.622,1.515-1.075c0.425-0.454,0.769-0.985,1.032-1.594
		c0.264-0.606,0.433-1.262,0.506-1.965h1.493c-0.104,0.967-0.33,1.838-0.682,2.613c-0.351,0.776-0.805,1.435-1.361,1.978
		c-0.556,0.541-1.212,0.958-1.966,1.251c-0.754,0.292-1.592,0.439-2.514,0.439c-1.229,0-2.31-0.224-3.239-0.671
		c-0.93-0.445-1.702-1.043-2.317-1.789c-0.614-0.746-1.076-1.61-1.383-2.591c-0.308-0.981-0.462-2.014-0.462-3.097
		s0.154-2.115,0.462-3.097c0.307-0.98,0.769-1.848,1.383-2.603c0.615-0.754,1.388-1.354,2.317-1.801
		c0.93-0.446,2.01-0.67,3.239-0.67c0.746,0,1.475,0.11,2.185,0.33c0.711,0.219,1.354,0.546,1.933,0.977
		c0.579,0.433,1.062,0.963,1.449,1.592c0.388,0.631,0.633,1.355,0.736,2.175h-1.493
		C172.222,106.966,172.006,106.427,171.706,105.953z"/>
	<path fill="#333333" d="M177.734,107.566c0.308-0.98,0.769-1.848,1.384-2.603c0.614-0.754,1.386-1.354,2.316-1.801
		c0.93-0.446,2.01-0.67,3.239-0.67s2.306,0.224,3.229,0.67c0.922,0.447,1.69,1.047,2.306,1.801c0.615,0.755,1.076,1.622,1.384,2.603
		c0.307,0.981,0.461,2.014,0.461,3.097s-0.154,2.115-0.461,3.097c-0.308,0.98-0.769,1.845-1.384,2.591s-1.384,1.344-2.306,1.789
		c-0.923,0.447-1.999,0.671-3.229,0.671s-2.31-0.224-3.239-0.671c-0.931-0.445-1.702-1.043-2.316-1.789
		c-0.615-0.746-1.076-1.61-1.384-2.591c-0.307-0.981-0.461-2.014-0.461-3.097S177.427,108.548,177.734,107.566z M179.106,113.177
		c0.228,0.828,0.578,1.567,1.055,2.219c0.476,0.651,1.087,1.175,1.833,1.57c0.747,0.395,1.64,0.593,2.68,0.593
		c1.039,0,1.929-0.198,2.669-0.593c0.738-0.396,1.347-0.919,1.822-1.57c0.475-0.651,0.827-1.391,1.054-2.219
		c0.228-0.826,0.341-1.665,0.341-2.514c0-0.864-0.113-1.706-0.341-2.525c-0.227-0.82-0.579-1.556-1.054-2.207
		c-0.476-0.651-1.084-1.175-1.822-1.57c-0.74-0.396-1.63-0.594-2.669-0.594c-1.04,0-1.933,0.198-2.68,0.594
		c-0.746,0.396-1.357,0.919-1.833,1.57c-0.477,0.651-0.827,1.387-1.055,2.207c-0.227,0.819-0.34,1.661-0.34,2.525
		C178.766,111.511,178.879,112.35,179.106,113.177z"/>
	<path fill="#333333" d="M197.783,102.823l9.136,13.265h0.044v-13.265h1.493v15.68h-1.669l-9.136-13.265h-0.044v13.265h-1.493
		v-15.68H197.783z"/>
	<path fill="#333333" d="M214.43,115.362c0.264,0.542,0.625,0.975,1.087,1.296c0.461,0.322,1.006,0.553,1.636,0.691
		c0.63,0.14,1.303,0.209,2.021,0.209c0.41,0,0.856-0.059,1.34-0.176c0.482-0.117,0.934-0.304,1.35-0.561
		c0.418-0.256,0.766-0.585,1.043-0.987c0.278-0.403,0.418-0.89,0.418-1.461c0-0.439-0.1-0.819-0.296-1.142
		c-0.198-0.322-0.454-0.594-0.769-0.813c-0.315-0.219-0.663-0.397-1.044-0.538c-0.381-0.138-0.754-0.252-1.12-0.34l-3.491-0.856
		c-0.454-0.117-0.896-0.263-1.329-0.439c-0.432-0.176-0.809-0.409-1.13-0.703c-0.323-0.292-0.583-0.65-0.78-1.075
		c-0.197-0.424-0.297-0.944-0.297-1.56c0-0.38,0.073-0.827,0.22-1.34c0.146-0.512,0.421-0.995,0.823-1.448
		c0.403-0.454,0.955-0.839,1.658-1.153s1.604-0.473,2.701-0.473c0.775,0,1.516,0.104,2.219,0.309
		c0.702,0.204,1.317,0.512,1.845,0.922c0.526,0.41,0.946,0.919,1.263,1.526c0.314,0.607,0.471,1.313,0.471,2.119h-1.492
		c-0.029-0.601-0.165-1.124-0.406-1.57c-0.242-0.447-0.557-0.82-0.944-1.12c-0.389-0.3-0.835-0.527-1.34-0.681
		s-1.036-0.231-1.593-0.231c-0.513,0-1.007,0.055-1.481,0.165c-0.476,0.109-0.894,0.286-1.252,0.527
		c-0.359,0.242-0.648,0.56-0.868,0.956c-0.219,0.395-0.329,0.885-0.329,1.471c0,0.366,0.062,0.685,0.188,0.955
		c0.123,0.271,0.296,0.502,0.516,0.692c0.22,0.189,0.473,0.344,0.758,0.46c0.285,0.118,0.589,0.213,0.911,0.286l3.821,0.944
		c0.556,0.146,1.079,0.326,1.57,0.538c0.49,0.213,0.923,0.476,1.296,0.79c0.372,0.315,0.666,0.7,0.878,1.154
		c0.212,0.453,0.319,1.002,0.319,1.646c0,0.176-0.019,0.409-0.056,0.703c-0.037,0.293-0.125,0.604-0.264,0.933
		s-0.337,0.663-0.593,0.999c-0.257,0.337-0.607,0.641-1.055,0.912c-0.446,0.271-0.999,0.489-1.657,0.658
		c-0.659,0.169-1.45,0.253-2.372,0.253s-1.778-0.106-2.569-0.318c-0.79-0.213-1.464-0.538-2.021-0.978s-0.984-1.003-1.284-1.69
		c-0.301-0.688-0.429-1.516-0.384-2.482h1.492C214.041,114.147,214.166,114.821,214.43,115.362z"/>
	<path fill="#333333" d="M230.285,102.823v9.706c0,0.908,0.102,1.68,0.307,2.317c0.205,0.637,0.506,1.156,0.9,1.559
		c0.396,0.402,0.879,0.695,1.449,0.879c0.571,0.184,1.216,0.274,1.933,0.274c0.732,0,1.384-0.091,1.955-0.274
		c0.57-0.184,1.054-0.477,1.448-0.879c0.396-0.402,0.696-0.922,0.901-1.559c0.205-0.638,0.308-1.409,0.308-2.317v-9.706h1.493
		v10.035c0,0.806-0.114,1.57-0.341,2.296c-0.228,0.725-0.586,1.357-1.076,1.898c-0.491,0.542-1.12,0.971-1.889,1.285
		s-1.702,0.473-2.8,0.473c-1.084,0-2.01-0.158-2.777-0.473c-0.769-0.314-1.399-0.743-1.89-1.285
		c-0.49-0.541-0.849-1.174-1.076-1.898c-0.227-0.726-0.34-1.49-0.34-2.296v-10.035H230.285z"/>
	<path fill="#333333" d="M247.239,102.823v14.406h8.784v1.273h-10.277v-15.68H247.239z"/>
	<path fill="#333333" d="M268.013,102.823v1.272h-5.468v14.407h-1.494v-14.407h-5.446v-1.272H268.013z"/>
	<path fill="#333333" d="M272.844,102.823v15.68h-1.493v-15.68H272.844z"/>
	<path fill="#333333" d="M279.52,102.823l9.136,13.265h0.044v-13.265h1.493v15.68h-1.669l-9.136-13.265h-0.044v13.265h-1.493v-15.68
		H279.52z"/>
	<path fill="#333333" d="M307.409,118.503l-0.197-2.854h-0.044c-0.264,0.556-0.59,1.035-0.978,1.438
		c-0.388,0.403-0.816,0.732-1.285,0.988c-0.469,0.257-0.969,0.443-1.504,0.56c-0.535,0.118-1.087,0.177-1.658,0.177
		c-1.229,0-2.31-0.224-3.238-0.671c-0.931-0.445-1.703-1.043-2.317-1.789c-0.615-0.746-1.076-1.61-1.384-2.591
		c-0.308-0.981-0.461-2.014-0.461-3.097s0.153-2.115,0.461-3.097c0.308-0.98,0.769-1.848,1.384-2.603
		c0.614-0.754,1.387-1.354,2.317-1.801c0.929-0.446,2.009-0.67,3.238-0.67c0.82,0,1.596,0.11,2.328,0.33
		c0.732,0.219,1.383,0.549,1.955,0.987c0.57,0.439,1.054,0.981,1.448,1.626c0.396,0.644,0.667,1.398,0.812,2.262h-1.493
		c-0.044-0.453-0.193-0.911-0.449-1.373c-0.257-0.461-0.602-0.881-1.032-1.263c-0.433-0.38-0.948-0.691-1.549-0.933
		c-0.6-0.241-1.273-0.363-2.021-0.363c-1.039,0-1.932,0.198-2.679,0.594s-1.357,0.919-1.834,1.57
		c-0.476,0.651-0.827,1.387-1.054,2.207c-0.228,0.819-0.341,1.661-0.341,2.525c0,0.849,0.113,1.688,0.341,2.514
		c0.227,0.828,0.578,1.567,1.054,2.219c0.477,0.651,1.087,1.175,1.834,1.57c0.747,0.395,1.64,0.593,2.679,0.593
		c0.863,0,1.636-0.143,2.317-0.428c0.681-0.286,1.255-0.685,1.724-1.197c0.468-0.513,0.82-1.12,1.055-1.823s0.344-1.472,0.329-2.306
		h-5.337v-1.273h6.654v7.972H307.409z"/>
</g>
</svg>
